<svg xmlns="http://www.w3.org/2000/svg" width="418.26" height="395.238" viewBox="0 0 418.26 395.238">
  <g id="blob-shape_1_" data-name="blob-shape (1)" transform="translate(154.166 119.355) rotate(-169)">
    <path id="Path_6" data-name="Path 6" d="M58.536-204.169c34.972,23.812,61.035,61.341,51.233,92.464-9.727,31.193-55.243,55.98-78.632,91.489C7.674,15.364,6.411,61.665-16.9,83.667c-23.315,21.932-68.608,19.5-108.333,5.013a200.293,200.293,0,0,1-97.121-75.336c-23.166-34.256-35.269-76.1-21.384-107.364,13.811-31.262,53.684-51.941,87.914-75.893,34.3-23.882,62.891-51.106,99.2-59.6C-20.393-238.077,23.563-227.982,58.536-204.169Z" transform="translate(0 0)" fill="rgba(165,140,95,0.12)"/>
  </g>
</svg>
