<svg id="Component_11_1" data-name="Component 11 – 1" xmlns="http://www.w3.org/2000/svg" width="196.971" height="53.557" viewBox="0 0 196.971 53.557">
  <path id="Path_1" data-name="Path 1" d="M111.687,111.671c-1.138-.685-7.679-5.464-8.655-6.929-.976,1.466-7.517,6.245-8.655,6.929-10.789,6.489-14.371,9.877-14.371,21.973,0,13.617,10.309,24.655,23.026,24.655s23.026-11.038,23.026-24.655C126.058,121.549,122.475,118.16,111.687,111.671Zm6.706,29.072c.261,3.189-1.827,8.89-6.135,9.47s-7.459-3.529-7.459-3.529l-.769-1.114s.246-1.968-1-2c-1.243.028-1,2-1,2l-.77,1.114s-3.152,4.109-7.46,3.529-6.4-6.28-6.135-9.47c0,0-3-.1-.653-2.029,0,0,1.175-1.286.783-2.059s-1.044-.857-.914-1.716c-.13-.859.522-.943.914-1.716s-.783-2.06-.783-2.06c-2.349-1.933.653-2.029.653-2.029-.261-3.189,1.827-8.89,6.135-9.47s4.177,2.773,4.177,2.773l.392,2.645s1.958.684,1.958-1.055,2.7-4.333,2.7-4.333,2.7,2.594,2.7,4.333,1.956,1.055,1.956,1.055l.391-2.645s-.131-3.352,4.176-2.773,6.4,6.28,6.135,9.47c0,0,3,.1.653,2.029,0,0-1.175,1.287-.783,2.06s1.044.857.914,1.716c.13.859-.522.943-.914,1.716s.783,2.059.783,2.059C121.394,140.647,118.392,140.743,118.392,140.743Z" transform="translate(-80.005 -104.742)" fill="#a58c5f"/>
  <text id="WALNUTS" transform="translate(62.971 18)" fill="#a58c5f" font-size="16" font-family="Lato-Semibold, Lato" font-weight="600" letter-spacing="0.5em"><tspan x="0" y="16">WALNUTS</tspan></text>
</svg>
