<svg xmlns="http://www.w3.org/2000/svg" width="20.661" height="20.661" viewBox="0 0 20.661 20.661">
  <g id="Icon_feather-instagram" data-name="Icon feather-instagram" transform="translate(0.75 0.75)">
    <path id="Path_9" data-name="Path 9" d="M7.79,3h9.58a4.79,4.79,0,0,1,4.79,4.79v9.58a4.79,4.79,0,0,1-4.79,4.79H7.79A4.79,4.79,0,0,1,3,17.371V7.79A4.79,4.79,0,0,1,7.79,3Z" transform="translate(-3 -3)" fill="none" stroke="#a58c5f" stroke-linecap="round" stroke-linejoin="round" stroke-width="1.5"/>
    <path id="Path_10" data-name="Path 10" d="M19.688,15.205a3.832,3.832,0,1,1-3.229-3.229,3.832,3.832,0,0,1,3.229,3.229Z" transform="translate(-6.275 -6.228)" fill="none" stroke="#a58c5f" stroke-linecap="round" stroke-linejoin="round" stroke-width="1.5"/>
    <path id="Path_11" data-name="Path 11" d="M26.25,9.75h0" transform="translate(-11.4 -5.439)" fill="none" stroke="#a58c5f" stroke-linecap="round" stroke-linejoin="round" stroke-width="1.5"/>
  </g>
</svg>
